<svg width="100" height="100" xmlns="http://www.w3.org/2000/svg" xml:space="preserve" version="1.0">

 <g>
  <title>Layer 1</title>
  <path id="svg_1" d="m66.598,70.916c-0.562,0 -1.074,0.319 -1.323,0.822l-1.353,2.742l-3.027,0.44c-0.556,0.081 -1.017,0.47 -1.191,1.004c-0.174,0.534 -0.029,1.12 0.373,1.512l2.19,2.135l-0.517,3.014c-0.095,0.554 0.133,1.113 0.587,1.443c0.257,0.187 0.561,0.282 0.867,0.282c0.235,0 0.471,-0.056 0.686,-0.169l2.707,-1.423l2.707,1.423c0.216,0.113 0.452,0.169 0.686,0.169c0.306,0 0.61,-0.095 0.867,-0.282c0.454,-0.33 0.682,-0.89 0.587,-1.443l-0.517,-3.014l2.19,-2.135c0.402,-0.392 0.547,-0.978 0.373,-1.512c-0.174,-0.534 -0.635,-0.923 -1.191,-1.004l-3.027,-0.44l-1.353,-2.742c-0.246,-0.503 -0.759,-0.822 -1.321,-0.822l0,0zm-16.598,0c-0.562,0 -1.074,0.319 -1.323,0.822l-1.353,2.742l-3.027,0.44c-0.556,0.081 -1.017,0.47 -1.191,1.004c-0.174,0.534 -0.029,1.12 0.373,1.512l2.19,2.135l-0.517,3.014c-0.095,0.554 0.133,1.113 0.587,1.443c0.257,0.187 0.561,0.282 0.867,0.282c0.235,0 0.471,-0.056 0.686,-0.169l2.708,-1.422l2.707,1.423c0.216,0.113 0.452,0.169 0.686,0.169c0.306,0 0.61,-0.095 0.867,-0.282c0.454,-0.33 0.682,-0.89 0.587,-1.443l-0.517,-3.014l2.19,-2.135c0.402,-0.392 0.547,-0.978 0.373,-1.512c-0.174,-0.534 -0.635,-0.923 -1.191,-1.004l-3.027,-0.44l-1.353,-2.742c-0.248,-0.504 -0.76,-0.823 -1.322,-0.823l0,0zm-16.598,0c-0.562,0 -1.074,0.319 -1.323,0.822l-1.353,2.742l-3.027,0.44c-0.556,0.081 -1.017,0.47 -1.191,1.004c-0.174,0.534 -0.029,1.12 0.373,1.512l2.19,2.135l-0.517,3.014c-0.095,0.554 0.133,1.113 0.587,1.443c0.257,0.187 0.561,0.282 0.867,0.282c0.235,0 0.471,-0.056 0.686,-0.169l2.707,-1.423l2.707,1.423c0.216,0.113 0.452,0.169 0.686,0.169c0.306,0 0.61,-0.095 0.867,-0.282c0.454,-0.33 0.682,-0.89 0.587,-1.443l-0.517,-3.014l2.19,-2.135c0.402,-0.392 0.547,-0.978 0.373,-1.512c-0.174,-0.534 -0.635,-0.923 -1.191,-1.004l-3.027,-0.44l-1.353,-2.742c-0.247,-0.503 -0.76,-0.822 -1.321,-0.822l0,0z"/>
  <path id="svg_2" d="m72.131,50.738l-25.82,0l0,-1.475l25.82,0l0,1.475zm-22.131,2.213l-3.689,0l0,1.475l3.689,0l0,-1.475zm22.131,0l-18.442,0l0,1.475l18.443,0l0,-1.475l-0.001,0zm-11.065,3.688l-14.755,0l0,1.475l14.754,0l0,-1.475l0.001,0zm11.065,0l-7.377,0l0,1.475l7.377,0l0,-1.475zm-14.754,3.689l-11.066,0l0,1.475l11.066,0l0,-1.475zm3.689,-33.197l-14.755,0l0,1.475l14.754,0l0,-1.475l0.001,0zm11.065,0l-7.377,0l0,1.475l7.377,0l0,-1.475zm0,3.689l-25.82,0l0,1.475l25.82,0l0,-1.475zm-14.754,3.688l-11.066,0l0,1.475l11.066,0l0,-1.475zm14.754,0l-11.065,0l0,1.475l11.066,0l0,-1.475l-0.001,0zm-7.377,3.689l-18.443,0l0,1.475l18.443,0l0,-1.475z"/>
  <path id="svg_3" d="m75.82,12.377l-4.338,0c-0.741,-1.139 -1.62,-2.329 -2.458,-3.404l-0.257,-0.33l-0.416,0.052c-2.313,0.288 -8.743,0.858 -10.692,0.051c-0.341,-0.141 -0.869,-0.895 -1.294,-1.501c-0.773,-1.104 -1.572,-2.245 -2.676,-2.245l-7.377,0c-1.104,0 -1.904,1.141 -2.677,2.244c-0.425,0.606 -0.953,1.36 -1.294,1.501c-1.947,0.807 -8.379,0.237 -10.692,-0.051l-0.416,-0.052l-0.257,0.33c-0.838,1.075 -1.717,2.265 -2.458,3.404l-4.338,0c-2.441,0 -4.426,1.986 -4.426,4.426l0,73.77c0,2.441 1.985,4.426 4.426,4.426l51.64,0c2.441,0 4.426,-1.985 4.426,-4.426l0,-73.77c0,-2.439 -1.986,-4.425 -4.426,-4.425zm-43.934,-2.169c1.891,0.218 8.608,0.899 11.02,-0.1c0.737,-0.305 1.32,-1.137 1.937,-2.017c0.396,-0.564 1.132,-1.615 1.469,-1.615l7.377,0c0.337,0 1.073,1.051 1.469,1.615c0.617,0.88 1.2,1.712 1.937,2.017c2.412,0.999 9.129,0.318 11.02,0.1c1.698,2.219 3.397,4.834 3.684,5.857l-43.598,0c0.288,-1.022 1.987,-3.638 3.685,-5.857zm46.884,80.366c0,1.627 -1.324,2.951 -2.951,2.951l-51.639,0c-1.627,0 -2.951,-1.324 -2.951,-2.951l0,-73.77c0,-1.627 1.324,-2.951 2.951,-2.951l3.449,0c-0.727,1.324 -1.12,2.457 -0.82,3.071c0.192,0.392 0.578,0.618 1.059,0.618l44.262,0c0.482,0 0.867,-0.225 1.059,-0.618c0.3,-0.614 -0.093,-1.746 -0.82,-3.071l3.449,0c1.627,0 2.951,1.324 2.951,2.951l0,73.77l0.001,0zm-28.77,-77.459c-1.424,0 -2.582,-1.158 -2.582,-2.582s1.158,-2.582 2.582,-2.582s2.582,1.158 2.582,2.582s-1.158,2.582 -2.582,2.582zm0,-3.689c-0.61,0 -1.107,0.496 -1.107,1.107c0,0.61 0.496,1.107 1.107,1.107s1.107,-0.496 1.107,-1.107c0,-0.61 -0.497,-1.107 -1.107,-1.107z"/>
  <path id="svg_4" d="m38.934,50l0,11.066l-11.065,0l0,-11.066l11.065,0m0,-1.475l-11.065,0c-0.815,0 -1.475,0.661 -1.475,1.475l0,11.066c0,0.815 0.661,1.475 1.475,1.475l11.066,0c0.815,0 1.475,-0.661 1.475,-1.475l0,-11.066c0,-0.815 -0.661,-1.475 -1.476,-1.475l0,0zm-5.451,-10.328c-0.008,0 -0.016,0 -0.024,0c-0.302,0 -0.588,-0.12 -0.792,-0.343l-3.77,-4.111c-0.413,-0.451 -0.382,-1.147 0.069,-1.559c0.451,-0.412 1.151,-0.379 1.563,0.071l2.989,3.267l7.698,-7.698c0.432,-0.432 1.132,-0.432 1.565,0c0.432,0.432 0.432,1.133 0,1.565l-8.516,8.5c-0.207,0.208 -0.489,0.308 -0.782,0.308zm5.451,-3.926l0,4.664l-5.451,0l-0.033,0l-5.581,0l0,-11.066l11.066,0l0,1.194l1.45,-1.45c-0.122,-0.692 -0.722,-1.22 -1.45,-1.22l-11.066,0c-0.815,0 -1.475,0.661 -1.475,1.475l0,11.066c0,0.815 0.661,1.475 1.475,1.475l11.066,0c0.815,0 1.475,-0.661 1.475,-1.475l0,-6.136l-1.476,1.473z"/>
 </g>
</svg>